<?xml version="1.0" standalone="no"?>
<!DOCTYPE svg PUBLIC "-//W3C//DTD SVG 20010904//EN"
 "http://www.w3.org/TR/2001/REC-SVG-20010904/DTD/svg10.dtd">
<svg version="1.0" xmlns="http://www.w3.org/2000/svg"
 width="240.000000pt" height="240.000000pt" viewBox="0 0 240.000000 240.000000"
 preserveAspectRatio="xMidYMid meet">
<metadata>
Created by potrace 1.11, written by Peter Selinger 2001-2013
</metadata>
<g transform="translate(0.000000,240.000000) scale(0.100000,-0.100000)"
fill="#000000" stroke="none">
<path d="M1149 1896 c-90 -101 -158 -212 -199 -326 -13 -36 -24 -66 -25 -68
-2 -2 -39 22 -84 52 -115 77 -317 159 -326 133 -28 -87 -43 -258 -31 -369 l7
-65 81 -27 c44 -14 116 -44 160 -66 83 -42 93 -46 83 -30 -3 5 -6 51 -6 102 0
96 16 170 52 241 l20 38 59 -47 c33 -26 60 -49 60 -51 0 -3 -15 -37 -34 -76
-37 -76 -56 -160 -56 -239 0 -45 4 -52 43 -88 l42 -39 6 112 c4 62 14 137 24
167 23 75 76 168 129 226 l44 49 22 -20 c59 -53 137 -190 160 -280 7 -27 16
-96 19 -152 l6 -103 43 41 c38 37 42 45 42 88 0 78 -20 162 -56 238 -19 39
-34 73 -34 76 0 2 26 25 59 50 l58 46 22 -47 c38 -84 54 -169 48 -259 -2 -46
-3 -83 -1 -83 2 0 32 15 66 34 35 19 103 48 152 65 48 16 92 33 98 39 5 5 12
56 15 113 5 99 -5 205 -28 291 l-9 36 -61 -18 c-86 -26 -200 -82 -276 -136
-36 -25 -67 -44 -68 -42 -2 2 -17 39 -34 83 -43 112 -111 223 -184 298 l-62
65 -46 -52z"/>
<path d="M295 1138 c-27 -5 -54 -13 -58 -17 -11 -11 36 -132 75 -195 59 -97
94 -133 241 -252 41 -33 64 -37 107 -20 87 34 300 12 409 -43 51 -26 91 -28
91 -3 0 9 -23 51 -50 92 -28 41 -60 100 -71 131 -14 38 -36 71 -66 100 -48 47
-50 42 -17 -40 8 -19 12 -36 10 -38 -7 -7 -65 70 -97 130 -30 56 -36 61 -113
97 -44 21 -113 45 -153 54 -78 17 -227 20 -308 4z"/>
<path d="M1845 1135 c-152 -33 -282 -105 -336 -186 -20 -30 -47 -63 -59 -74
l-23 -20 12 23 c23 43 6 31 -34 -24 -67 -91 -137 -245 -120 -263 3 -3 18 0 33
6 15 6 68 29 117 49 84 36 97 38 192 39 98 0 103 -1 131 -28 36 -35 45 -33
144 32 105 68 199 174 254 285 24 50 46 105 47 121 2 29 0 30 -53 42 -74 15
-231 14 -305 -2z"/>
</g>
</svg>
